<svg xmlns="http://www.w3.org/2000/svg" viewBox="0 0 219 269.07"><title>power-token</title><g id="Layer_2" data-name="Layer 2"><g id="badge2"><path d="M102.34,251.32c-63.91-39.57-75.77-71.88-82.86-91.18L19.06,159c-8.55-23.2-5-86.68-3.66-98.54l1.21-10.32L26.9,48.6C68.5,42.41,101.23,19.21,101.56,19l7.37-5.28a1,1,0,0,1,1.16,0L117.46,19c.31.23,33,23.43,74.64,29.62l10.29,1.54,1.21,10.32c1.39,11.86,4.89,75.34-3.66,98.54l-.42,1.14c-7.09,19.3-19,51.61-82.86,91.18l-6.63,4.1a1,1,0,0,1-1.06,0Z" style="fill:none;stroke:#fff;stroke-miterlimit:10;stroke-width:27px"/><path d="M109.5,242.89c63-39,73-69,80-88s5-78,3-95c-47-7-83-33-83-33s-36,26-83,33c-2,17-4,76,3,95S46.5,203.89,109.5,242.89Z" style="fill:#ae995b"/><polygon points="107.5 68.89 27.27 149.12 9.27 131.12 107.5 32.89 107.5 68.89" style="fill:#fff;stroke:#fff;stroke-miterlimit:10;stroke-width:0.75px"/><polygon points="107.5 142.89 45.3 205.09 30.24 184.15 107.5 106.89 107.5 142.89" style="fill:#fff;stroke:#fff;stroke-miterlimit:10;stroke-width:0.75px"/><polygon points="107.5 218.89 83.5 242.89 65.51 224.88 107.5 182.89 107.5 218.89" style="fill:#fff;stroke:#fff;stroke-miterlimit:10;stroke-width:0.75px"/><path d="M109.5,31.75c8.61,5.76,39.65,25,79.34,31.61,1.78,19.43,3.26,72.9-3.09,90.15l-.44,1.19c-6.84,18.62-17.14,46.65-75.81,83.48-58.67-36.83-69-64.86-75.81-83.48l-.44-1.19c-6.35-17.25-4.87-70.72-3.09-90.15,39.69-6.64,70.73-25.85,79.34-31.61m0-4.86s-36,26-83,33c-2,17-4,76,3,95s17,49,80,88c63-39,73-69,80-88s5-78,3-95c-47-7-83-33-83-33Z" style="fill:#ae995b"/><line x1="39.5" y1="119.89" x2="39.5" y2="119.89" style="fill:none;stroke:#ae995b;stroke-linecap:round;stroke-miterlimit:10;stroke-width:6px"/><line x1="50" y1="109.39" x2="97.25" y2="62.14" style="fill:none;stroke:#ae995b;stroke-linecap:round;stroke-miterlimit:10;stroke-width:6px;stroke-dasharray:0,14.849242210388184"/><line x1="102.5" y1="56.89" x2="102.5" y2="56.89" style="fill:none;stroke:#ae995b;stroke-linecap:round;stroke-miterlimit:10;stroke-width:6px"/><line x1="98.5" y1="132.89" x2="98.5" y2="132.89" style="fill:none;stroke:#ae995b;stroke-linecap:round;stroke-miterlimit:10;stroke-width:6px"/><line x1="88" y1="143.39" x2="61.75" y2="169.64" style="fill:none;stroke:#ae995b;stroke-linecap:round;stroke-miterlimit:10;stroke-width:6px;stroke-dasharray:0,14.849242210388184"/><line x1="56.5" y1="174.89" x2="56.5" y2="174.89" style="fill:none;stroke:#ae995b;stroke-linecap:round;stroke-miterlimit:10;stroke-width:6px"/><line x1="102.5" y1="203.89" x2="102.5" y2="203.89" style="fill:none;stroke:#ae995b;stroke-linecap:round;stroke-miterlimit:10;stroke-width:6px"/><line x1="92.5" y1="214.89" x2="92.5" y2="214.89" style="fill:none;stroke:#ae995b;stroke-linecap:round;stroke-miterlimit:10;stroke-width:6px"/></g></g></svg>